<?xml version="1.0" standalone="no"?>
<!DOCTYPE svg PUBLIC "-//W3C//DTD SVG 1.1//EN" "http://www.w3.org/Graphics/SVG/1.1/DTD/svg11.dtd">
<svg xmlns="http://www.w3.org/2000/svg" xmlns:xlink="http://www.w3.org/1999/xlink" version="1.1" id="Layer_1" x="0px" y="0px" viewBox="0 0 1000 1000" style="enable-background:new 0 0 1000 1000;" xml:space="preserve" width="1000" height="1000">
<style type="text/css">
	.st0{fill:#4B6B82;}
	.st1{fill:#37C85F;}
	.st2{fill:#3EF76A;}
	.st3{opacity:0.5;fill:#009323;}
	.st4{fill:url(#SVGID_1_);}
	.st5{fill:url(#SVGID_2_);}
	.st6{fill:#001430;}
	.st7{fill:#FFFFFF;}
	.st8{fill:url(#SVGID_3_);}
	.st9{fill:url(#SVGID_4_);}
</style>
<g>
	<g>
		<path class="st0" d="M560.3,563.2v1.5c0,3.2-1.1,5.9-3.3,8c-2.2,2.1-5.1,3.2-8.8,3.2c-3.8,0-6.9-1.2-9.3-3.7    c-2.5-2.5-3.7-5.5-3.7-9.1c0-3.6,1.2-6.6,3.7-9.1c2.5-2.5,5.5-3.7,9.3-3.7c2.3,0,4.4,0.5,6.3,1.6c1.9,1.1,3.4,2.5,4.4,4.3    l-2.8,1.7c-0.7-1.3-1.8-2.4-3.2-3.2c-1.4-0.8-3-1.2-4.7-1.2c-2.8,0-5.1,0.9-6.9,2.8c-1.8,1.8-2.7,4.1-2.7,6.9c0,2.7,0.9,5,2.7,6.8    c1.8,1.8,4.2,2.8,7.1,2.8c2.5,0,4.5-0.6,6-1.8c1.5-1.2,2.5-2.8,2.8-4.7H548v-3H560.3z"/>
		<path class="st0" d="M566.2,568c0.3,1.6,1,2.8,2.2,3.7c1.1,0.9,2.5,1.3,4.2,1.3c2.3,0,4-0.9,5.1-2.6l2.6,1.5c-1.7,2.7-4.3,4-7.8,4    c-2.8,0-5.1-0.9-6.8-2.6c-1.8-1.8-2.6-4-2.6-6.6c0-2.7,0.9-4.9,2.6-6.6c1.7-1.8,3.9-2.6,6.7-2.6c2.6,0,4.7,0.9,6.3,2.7    c1.6,1.8,2.5,4,2.5,6.6c0,0.4,0,0.9-0.1,1.4H566.2z M572.3,560.3c-1.6,0-3,0.5-4.1,1.4c-1.1,0.9-1.8,2.2-2,3.7h11.8    c-0.3-1.7-0.9-2.9-2-3.8C574.9,560.7,573.7,560.3,572.3,560.3z"/>
		<path class="st0" d="M593.6,560.8h-4.7v9.6c0,0.9,0.2,1.5,0.5,1.9c0.3,0.4,0.9,0.6,1.6,0.6c0.7,0,1.6,0,2.6-0.1v2.8    c-2.7,0.4-4.6,0.1-5.9-0.7c-1.2-0.8-1.9-2.3-1.9-4.5v-9.6h-3.5v-3h3.5v-4l3.1-0.9v4.9h4.7V560.8z"/>
		<path class="st0" d="M609.8,572.3h11.5v3.1h-14.7v-24.7h14.6v3.1h-11.3v7.6h10.4v3.1h-10.4V572.3z"/>
		<path class="st0" d="M624.9,575.5v-25.7h3.1v25.7H624.9z"/>
		<path class="st0" d="M634.8,568c0.3,1.6,1,2.8,2.2,3.7c1.1,0.9,2.5,1.3,4.2,1.3c2.3,0,4-0.9,5.1-2.6l2.6,1.5c-1.7,2.7-4.3,4-7.8,4    c-2.8,0-5.1-0.9-6.8-2.6c-1.8-1.8-2.6-4-2.6-6.6c0-2.7,0.9-4.9,2.6-6.6c1.7-1.8,3.9-2.6,6.7-2.6c2.6,0,4.7,0.9,6.3,2.7    c1.6,1.8,2.5,4,2.5,6.6c0,0.4,0,0.9-0.1,1.4H634.8z M640.9,560.3c-1.6,0-3,0.5-4.1,1.4c-1.1,0.9-1.8,2.2-2,3.7h11.8    c-0.3-1.7-0.9-2.9-2-3.8C643.5,560.7,642.3,560.3,640.9,560.3z"/>
		<path class="st0" d="M667.8,557.8h3.1v17.6h-3.1v-3c-1.5,2.3-3.8,3.5-6.7,3.5c-2.5,0-4.6-0.9-6.3-2.7c-1.7-1.8-2.6-4-2.6-6.6    c0-2.6,0.9-4.8,2.6-6.6c1.7-1.8,3.8-2.7,6.3-2.7c2.9,0,5.1,1.2,6.7,3.5V557.8z M661.5,572.9c1.8,0,3.3-0.6,4.5-1.8    c1.2-1.2,1.8-2.7,1.8-4.5c0-1.8-0.6-3.3-1.8-4.5c-1.2-1.2-2.7-1.8-4.5-1.8c-1.8,0-3.2,0.6-4.4,1.8s-1.8,2.7-1.8,4.5    c0,1.8,0.6,3.3,1.8,4.5C658.2,572.3,659.7,572.9,661.5,572.9z"/>
	</g>
	<g>
		<path class="st0" d="M431.2,537.7V404.1h24.6v133.7H431.2z"/>
		<path class="st0" d="M646.2,442.3h24.6v95.5h-24.6v-11.3c-7.4,9.3-17.8,13.9-31.1,13.9c-12.7,0-23.6-4.9-32.7-14.6    c-9.1-9.7-13.7-21.7-13.7-35.8c0-14.1,4.5-26.1,13.7-35.8c9.1-9.7,20-14.6,32.7-14.6c13.4,0,23.7,4.6,31.1,13.9V442.3z     M600.8,509.4c5,5,11.3,7.5,18.9,7.5c7.6,0,14-2.5,19-7.5c5-5,7.5-11.5,7.5-19.4c0-7.9-2.5-14.4-7.5-19.4c-5-5-11.4-7.5-19-7.5    c-7.6,0-13.9,2.5-18.9,7.5c-5,5-7.4,11.5-7.4,19.4C593.3,497.9,595.8,504.4,600.8,509.4z"/>
		<polygon class="st1" points="357.5,510.5 357.5,484 415.9,484 415.9,459.2 357.5,459.2 357.5,431.3 415.9,431.3 415.9,404.1     375.7,404.1 329.2,450.6 329.2,537.7 415.9,537.7 415.9,510.5   "/>
		<path class="st2" d="M375.7,404.1v32.4c0,7.8-6.3,14.1-14.1,14.1h-32.4L375.7,404.1z"/>
		<polygon class="st3" points="329.2,450.6 357.5,459.2 357.5,450.6   "/>
		<polygon class="st3" points="375.7,404.1 383.3,431.3 375.7,431.3   "/>
		<radialGradient id="SVGID_1_" cx="573.2799" cy="474.073" r="91.6807" gradientUnits="userSpaceOnUse">
			<stop offset="0" style="stop-color:#001F39"/>
			<stop offset="1" style="stop-color:#4B6B82;stop-opacity:0"/>
		</radialGradient>
		<path class="st4" d="M638.7,509.4c-5,5-11.4,7.5-19,7.5c-7.6,0-13.9-2.5-18.9-7.5c-5-5-7.4-11.5-7.4-19.4c0-7.9,2.5-14.4,7.4-19.4    l-31,30.6c1.8,9.4,6,17.6,12.6,24.6c9.1,9.7,20,14.6,32.7,14.6c13.4,0,23.7-4.6,31.1-13.9V490    C646.2,497.9,643.7,504.4,638.7,509.4z"/>
		<path class="st0" d="M579.2,457.9l20.9,13.4l-36.5,47.5c-9.7,12.4-21.3,19.5-34.7,21.1c-13.4,1.6-27.1-2-38.6-11    c-11.3-8.9-17.9-20-19.6-33.3c-1.8-13.3,1.9-25.8,11-37.5c8.6-11,19.6-17.1,32.8-18.4c13.2-1.2,25.5,2.6,36.7,11.4    c2.5,2,5,4.3,7.4,7l-44.4,56.7c11.5,4.8,21.7,1.4,30.7-10.1L579.2,457.9z M498.9,503.4l30-38.3c-6-2.9-11.6-3.6-16.8-2.1    c-5.2,1.5-9.5,4.5-13,8.9c-4.1,5.2-6.1,10.6-6.1,16.1C493,493.3,495,498.5,498.9,503.4z"/>
		<radialGradient id="SVGID_2_" cx="492.4884" cy="522.3491" r="69.5061" gradientUnits="userSpaceOnUse">
			<stop offset="0" style="stop-color:#001F39"/>
			<stop offset="1" style="stop-color:#4B6B82;stop-opacity:0"/>
		</radialGradient>
		<path class="st5" d="M498.9,503.4c0,0,7.5,8.8,15.3,11.5l44.4-56.7l-29.6,6.9L498.9,503.4z"/>
	</g>
</g>
</svg>